<svg width="34" height="48" viewBox="0 0 34 48" fill="none" xmlns="http://www.w3.org/2000/svg">
<rect x="16" y="6" width="2" height="2" fill="#EFEFEF"/>
<rect x="14" y="8" width="2" height="2" fill="#EFEFEF"/>
<rect x="12" y="6" width="2" height="2" fill="#EFEFEF"/>
<rect x="10" y="4" width="2" height="2" fill="#D9D9D9"/>
<rect x="10" y="4" width="2" height="2" fill="#D9D9D9"/>
<rect x="12" y="10" width="2" height="2" fill="#EFEFEF"/>
<rect x="10" y="10" width="2" height="2" fill="#E8E8E8"/>
<rect x="8" y="8" width="2" height="2" fill="#E8E8E8"/>
<rect x="6" y="8" width="2" height="2" fill="#D9D9D9"/>
<rect x="6" y="6" width="2" height="2" fill="#E8E8E8"/>
<rect x="4" y="8" width="2" height="2" fill="#D9D9D9"/>
<rect x="4" y="10" width="2" height="2" fill="#D9D9D9"/>
<rect x="2" y="10" width="2" height="2" fill="#D9D9D9"/>
<rect x="26" y="20" width="2" height="2" fill="#D9D9D9"/>
<rect x="28" y="20" width="2" height="2" fill="#D9D9D9"/>
<rect x="30" y="18" width="2" height="2" fill="#D9D9D9"/>
<rect x="30" y="22" width="2" height="2" fill="#D9D9D9"/>
<rect x="32" y="22" width="2" height="2" fill="#D9D9D9"/>
<rect x="28" y="24" width="2" height="2" fill="#D9D9D9"/>
<rect x="26" y="24" width="2" height="2" fill="#D9D9D9"/>
<rect x="24" y="26" width="2" height="2" fill="#D9D9D9"/>
<rect x="26" y="28" width="2" height="2" fill="#D9D9D9"/>
<rect x="18" y="40" width="2" height="2" fill="#D9D9D9"/>
<rect x="20" y="42" width="2" height="2" fill="#D9D9D9"/>
<rect x="22" y="40" width="2" height="2" fill="#D9D9D9"/>
<rect x="24" y="42" width="2" height="2" fill="#9F9F9F"/>
<rect x="22" y="44" width="2" height="2" fill="#9F9F9F"/>
<rect x="20" y="46" width="2" height="2" fill="#9F9F9F"/>
<rect x="20" y="40" width="2" height="2" fill="#D9D9D9"/>
<rect x="20" y="38" width="2" height="2" fill="#EFEFEF"/>
<rect x="22" y="36" width="2" height="2" fill="#EFEFEF"/>
<rect x="24" y="34" width="2" height="2" fill="#EFEFEF"/>
<rect x="24" y="38" width="2" height="2" fill="#9F9F9F"/>
<rect x="18" y="40" width="2" height="2" fill="#EFEFEF"/>
<rect x="18" y="42" width="2" height="2" fill="#D9D9D9"/>
<rect x="16" y="44" width="2" height="2" fill="#D9D9D9"/>
<rect x="14" y="44" width="2" height="2" fill="#D9D9D9"/>
<rect x="12" y="44" width="2" height="2" fill="#D9D9D9"/>
<rect x="10" y="42" width="2" height="2" fill="#EFEFEF"/>
<rect x="8" y="42" width="2" height="2" fill="#EFEFEF"/>
<rect x="22" y="26" width="2" height="2" fill="#D9D9D9"/>
<rect x="20" y="28" width="2" height="2" fill="#E8E8E8"/>
<rect x="18" y="28" width="2" height="2" fill="#EFEFEF"/>
<rect x="20" y="30" width="2" height="2" fill="#EFEFEF"/>
<rect x="20" y="26" width="2" height="2" fill="#E8E8E8"/>
<rect x="18" y="26" width="2" height="2" fill="#EFEFEF"/>
<rect x="16" y="26" width="2" height="2" fill="#EFEFEF"/>
<rect x="14" y="26" width="2" height="2" fill="#EFEFEF"/>
<rect x="14" y="24" width="2" height="2" fill="#EFEFEF"/>
<rect x="12" y="24" width="2" height="2" fill="#D9D9D9"/>
<rect x="18" y="24" width="2" height="2" fill="#E8E8E8"/>
<rect x="16" y="22" width="2" height="2" fill="#EFEFEF"/>
<rect x="14" y="18" width="2" height="2" fill="#EFEFEF"/>
<rect x="14" y="16" width="2" height="2" fill="#EFEFEF"/>
<rect x="10" y="16" width="2" height="2" fill="#E8E8E8"/>
<rect x="8" y="16" width="2" height="2" fill="#E8E8E8"/>
<rect x="6" y="16" width="2" height="2" fill="#D9D9D9"/>
<rect x="14" y="14" width="2" height="2" fill="#EFEFEF"/>
<rect x="14" y="12" width="2" height="2" fill="#EFEFEF"/>
<rect x="12" y="12" width="2" height="2" fill="#EFEFEF"/>
<rect x="12" y="14" width="2" height="2" fill="#EFEFEF"/>
<rect x="12" y="16" width="2" height="2" fill="#EFEFEF"/>
<rect x="14" y="10" width="2" height="2" fill="#EFEFEF"/>
<rect x="16" y="10" width="2" height="2" fill="#EFEFEF"/>
<rect x="16" y="8" width="2" height="2" fill="#EFEFEF"/>
<rect x="16" y="28" width="2" height="2" fill="#EFEFEF"/>
<rect x="14" y="28" width="2" height="2" fill="#EFEFEF"/>
<rect x="12" y="28" width="2" height="2" fill="#EFEFEF"/>
<rect x="12" y="26" width="2" height="2" fill="#EFEFEF"/>
<rect x="10" y="30" width="2" height="2" fill="#D9D9D9"/>
<rect x="6" y="32" width="2" height="2" fill="#D9D9D9"/>
<rect x="10" y="26" width="2" height="2" fill="#E8E8E8"/>
<rect x="10" y="24" width="2" height="2" fill="#E8E8E8"/>
<rect x="8" y="24" width="2" height="2" fill="#D9D9D9"/>
<rect x="6" y="24" width="2" height="2" fill="#D9D9D9"/>
<rect x="6" y="24" width="2" height="2" fill="#D9D9D9"/>
<rect x="6" y="26" width="2" height="2" fill="#D9D9D9"/>
<rect x="6" y="26" width="2" height="2" fill="#D9D9D9"/>
<rect x="4" y="28" width="2" height="2" fill="#D9D9D9"/>
<rect y="32" width="2" height="2" fill="#D9D9D9"/>
<rect x="8" y="28" width="2" height="2" fill="#E8E8E8"/>
<rect x="8" y="26" width="2" height="2" fill="#D9D9D9"/>
<rect x="6" y="10" width="2" height="2" fill="#D9D9D9"/>
<rect x="16" y="18" width="2" height="2" fill="#EFEFEF"/>
<rect x="18" y="16" width="2" height="2" fill="#D9D9D9"/>
<rect x="20" y="16" width="2" height="2" fill="#D9D9D9"/>
<rect x="22" y="18" width="2" height="2" fill="#D9D9D9"/>
<rect x="22" y="16" width="2" height="2" fill="#D9D9D9"/>
<rect x="22" y="14" width="2" height="2" fill="#D9D9D9"/>
<rect x="22" y="12" width="2" height="2" fill="#D9D9D9"/>
<rect x="18" y="10" width="2" height="2" fill="#EFEFEF"/>
<rect x="18" y="12" width="2" height="2" fill="#EFEFEF"/>
<rect x="16" y="12" width="2" height="2" fill="#EFEFEF"/>
<rect x="16" y="14" width="2" height="2" fill="#EFEFEF"/>
<rect x="16" y="16" width="2" height="2" fill="#EFEFEF"/>
<rect x="18" y="14" width="2" height="2" fill="#D9D9D9"/>
<rect x="20" y="14" width="2" height="2" fill="#D9D9D9"/>
<rect x="20" y="12" width="2" height="2" fill="#D9D9D9"/>
<rect x="24" y="16" width="2" height="2" fill="#D9D9D9"/>
<rect x="26" y="16" width="2" height="2" fill="#D9D9D9"/>
<rect x="28" y="14" width="2" height="2" fill="#D9D9D9"/>
<rect x="24" y="20" width="2" height="2" fill="#D9D9D9"/>
<rect x="26" y="22" width="2" height="2" fill="#D9D9D9"/>
<rect x="24" y="24" width="2" height="2" fill="#D9D9D9"/>
<rect x="22" y="24" width="2" height="2" fill="#D9D9D9"/>
<rect x="20" y="24" width="2" height="2" fill="#D9D9D9"/>
<rect x="20" y="22" width="2" height="2" fill="#D9D9D9"/>
<rect x="22" y="22" width="2" height="2" fill="#D9D9D9"/>
<rect x="18" y="22" width="2" height="2" fill="#E8E8E8"/>
<rect x="18" y="20" width="2" height="2" fill="#232220"/>
<rect x="18" y="18" width="2" height="2" fill="#232220"/>
<rect x="20" y="18" width="2" height="2" fill="#232220"/>
<rect x="20" y="20" width="2" height="2" fill="#232220"/>
<rect x="22" y="20" width="2" height="2" fill="#232220"/>
<rect x="22" y="18" width="2" height="2" fill="#232220"/>
<rect x="24" y="22" width="2" height="2" fill="#232220"/>
<rect x="24" y="20" width="2" height="2" fill="#232220"/>
<rect x="22" y="22" width="2" height="2" fill="#232220"/>
<rect x="8" y="18" width="2" height="2" fill="#232220"/>
<rect x="10" y="18" width="2" height="2" fill="#232220"/>
<rect x="12" y="22" width="2" height="2" fill="#232220"/>
<rect x="14" y="22" width="2" height="2" fill="#232220"/>
<rect x="14" y="20" width="2" height="2" fill="#232220"/>
<rect x="16" y="24" width="2" height="2" fill="#232220"/>
<rect x="16" y="22" width="2" height="2" fill="#232220"/>
<rect x="12" y="24" width="2" height="2" fill="#232220"/>
<rect x="6" y="20" width="2" height="2" fill="#232220"/>
<rect x="4" y="20" width="2" height="2" fill="#232220"/>
<rect x="6" y="18" width="2" height="2" fill="#232220"/>
<rect x="8" y="20" width="2" height="2" fill="#232220"/>
<rect x="16" y="20" width="2" height="2" fill="#EFEFEF"/>
<rect x="12" y="18" width="2" height="2" fill="#EFEFEF"/>
<rect x="10" y="20" width="2" height="2" fill="#232220"/>
<rect x="12" y="20" width="2" height="2" fill="#EFEFEF"/>
<rect x="10" y="22" width="2" height="2" fill="#E8E8E8"/>
<rect x="6" y="22" width="2" height="2" fill="#D9D9D9"/>
<rect x="8" y="22" width="2" height="2" fill="#D9D9D9"/>
<rect x="4" y="22" width="2" height="2" fill="#232220"/>
<rect x="4" y="24" width="2" height="2" fill="#D9D9D9"/>
<rect x="2" y="26" width="2" height="2" fill="#D9D9D9"/>
<rect x="2" y="24" width="2" height="2" fill="#D9D9D9"/>
<rect x="2" y="22" width="2" height="2" fill="#D9D9D9"/>
<rect x="2" y="20" width="2" height="2" fill="#D9D9D9"/>
<rect x="4" y="18" width="2" height="2" fill="#D9D9D9"/>
<rect x="4" y="16" width="2" height="2" fill="#D9D9D9"/>
<rect x="6" y="14" width="2" height="2" fill="#D9D9D9"/>
<rect x="8" y="14" width="2" height="2" fill="#D9D9D9"/>
<rect x="10" y="14" width="2" height="2" fill="#E8E8E8"/>
<rect x="10" y="12" width="2" height="2" fill="#E8E8E8"/>
<rect x="6" y="12" width="2" height="2" fill="#D9D9D9"/>
<rect x="6" y="16" width="2" height="2" fill="#D9D9D9"/>
<rect x="2" y="18" width="2" height="2" fill="#9F9F9F"/>
<rect x="4" y="14" width="2" height="2" fill="#9F9F9F"/>
<rect x="2" y="16" width="2" height="2" fill="#9F9F9F"/>
<rect x="4" y="12" width="2" height="2" fill="#9F9F9F"/>
<rect x="8" y="12" width="2" height="2" fill="#9F9F9F"/>
<rect x="24" y="14" width="2" height="2" fill="#9F9F9F"/>
<rect x="26" y="12" width="2" height="2" fill="#9F9F9F"/>
<rect x="26" y="10" width="2" height="2" fill="#9F9F9F"/>
<rect x="28" y="12" width="2" height="2" fill="#9F9F9F"/>
<rect x="30" y="10" width="2" height="2" fill="#9F9F9F"/>
<rect x="8" y="10" width="2" height="2" fill="#9F9F9F"/>
<rect x="2" y="12" width="2" height="2" fill="#9F9F9F"/>
<rect x="18" y="8" width="2" height="2" fill="#EFEFEF"/>
<rect x="20" y="10" width="2" height="2" fill="#EFEFEF"/>
<rect x="22" y="10" width="2" height="2" fill="#EFEFEF"/>
<rect x="24" y="8" width="2" height="2" fill="#EFEFEF"/>
<rect width="2" height="2" transform="matrix(1 0 0 -1 24 8)" fill="#EFEFEF"/>
<rect width="2" height="2" transform="matrix(1 0 0 -1 22 6)" fill="#EFEFEF"/>
<rect width="2" height="2" transform="matrix(1 0 0 -1 20 4)" fill="#EFEFEF"/>
<rect width="2" height="2" transform="matrix(1 0 0 -1 20 2)" fill="#D9D9D9"/>
<rect width="2" height="2" transform="matrix(1 0 0 -1 22 4)" fill="#D9D9D9"/>
<rect width="2" height="2" transform="matrix(1 0 0 -1 24 4)" fill="#D9D9D9"/>
<rect width="2" height="2" transform="matrix(1 0 0 -1 26 6)" fill="#D9D9D9"/>
<rect width="2" height="2" transform="matrix(1 0 0 -1 28 8)" fill="#D9D9D9"/>
<rect width="2" height="2" transform="matrix(1 0 0 -1 22 2)" fill="#D9D9D9"/>
<rect width="2" height="2" transform="matrix(1 0 0 -1 18 2)" fill="#EFEFEF"/>
<rect width="2" height="2" transform="matrix(1 0 0 -1 16 4)" fill="#EFEFEF"/>
</svg>
